<?xml version="1.0" encoding="utf-8"?>
<!-- Generator: Adobe Illustrator 27.5.0, SVG Export Plug-In . SVG Version: 6.00 Build 0)  -->
<svg version="1.1" xmlns="http://www.w3.org/2000/svg" xmlns:xlink="http://www.w3.org/1999/xlink" x="0px" y="0px"
	 viewBox="0 0 1920 480" style="enable-background:new 0 0 1920 480;" xml:space="preserve">
<g id="BACKGROUND">
	<g>
		<rect style="fill:#FFFFFF;" width="1920" height="480"/>
		<rect style="fill:#7C9AE7;" width="94.328" height="480"/>
	</g>
</g>
<g id="OBJECTS">
	<g>
		<g>
			<path style="fill:#2D4D7D;" d="M1057.261,137.634c0,43.395,35.178,78.573,78.573,78.573V59.061
				C1092.44,59.061,1057.261,94.239,1057.261,137.634z"/>
			<path style="fill:#7C9AE7;" d="M1135.835,59.061v157.146c43.395,0,78.573-35.178,78.573-78.573
				C1214.408,94.239,1179.229,59.061,1135.835,59.061z"/>
		</g>
		<g>
			<path style="fill:#0C151F;" d="M1057.261,334.25c0,43.395,35.178,78.573,78.573,78.573V255.677
				C1092.44,255.677,1057.261,290.855,1057.261,334.25z"/>
			<path style="fill:#2D4D7D;" d="M1135.835,255.677v157.146c43.395,0,78.573-35.178,78.573-78.573
				C1214.408,290.855,1179.229,255.677,1135.835,255.677z"/>
		</g>
		<g>
			<rect x="1529.406" y="141.549" style="fill:#A0B6F2;" width="330.44" height="296.982"/>
			<g>
				<g>
					<path style="fill:#D8E2EF;" d="M1819.729,418.517h-249.718c-14.091-22.811-17.109-53.887-10.615-79.9
						c6.495-26.014,23.843-49.137,47.002-62.648c7.205-4.204,15.123-7.66,20.652-13.906c11.745-13.269,8.677-33.499,12.457-50.811
						c4.068-18.632,17.528-35.212,35.353-41.992c17.825-6.779,39.492-3.022,53.272,10.161c10.016,9.581,15.41,22.988,24.206,33.699
						c18.85,22.952,51.031,31.137,71.017,53.106c17.39,19.115,23.223,46.549,21.326,72.321
						C1842.785,364.32,1828.445,394.19,1819.729,418.517z"/>
					<path style="fill:#D8E2EF;" d="M1621.228,243.221c-3.037,6.578-7.391,12.835-13.666,16.457
						c-6.275,3.622-14.737,4.063-20.502-0.326c-5.81-4.423-7.588-12.354-7.986-19.645c-0.649-11.906,1.634-24.607,9.545-33.529
						c7.208-8.129,25.205-14.131,34.272-5.304C1632.655,210.378,1625.986,232.915,1621.228,243.221z"/>
				</g>
				<g>
					<g>
						<polygon style="fill:#E6F0FF;" points="1573.684,159.105 1554.199,178.589 1554.199,311.977 1673.511,311.977 
							1673.511,159.105 						"/>
						<path style="fill:#A1B5F4;" d="M1572.646,177.909v6.619h-6.619v-6.619H1572.646 M1574.731,175.824h-10.79v10.79h10.79V175.824
							L1574.731,175.824z"/>
						<rect x="1583.059" y="178.171" style="fill:#A1B5F4;" width="64.496" height="6.095"/>
						<path style="fill:#A1B5F4;" d="M1572.646,195.636v6.619h-6.619v-6.619H1572.646 M1574.731,193.551h-10.79v10.79h10.79V193.551
							L1574.731,193.551z"/>
						<rect x="1583.059" y="195.898" style="fill:#A1B5F4;" width="79.457" height="6.095"/>
						<path style="fill:#A1B5F4;" d="M1572.646,213.363v6.619h-6.619v-6.619H1572.646 M1574.731,211.278h-10.79v10.79h10.79V211.278
							L1574.731,211.278z"/>
						<rect x="1583.059" y="213.625" style="fill:#A1B5F4;" width="71.911" height="6.095"/>
						<path style="fill:#A1B5F4;" d="M1572.646,231.09v6.619h-6.619v-6.619H1572.646 M1574.731,229.005h-10.79v10.79h10.79V229.005
							L1574.731,229.005z"/>
						<rect x="1583.059" y="231.352" style="fill:#A1B5F4;" width="64.496" height="6.095"/>
						<path style="fill:#A1B5F4;" d="M1572.646,248.817v6.619h-6.619v-6.619H1572.646 M1574.731,246.732h-10.79v10.79h10.79V246.732
							L1574.731,246.732z"/>
						<rect x="1583.059" y="249.079" style="fill:#A1B5F4;" width="64.496" height="6.095"/>
						<path style="fill:#A1B5F4;" d="M1572.646,266.544v6.619h-6.619v-6.619H1572.646 M1574.731,264.459h-10.79v10.79h10.79V264.459
							L1574.731,264.459z"/>
						<rect x="1583.059" y="266.806" style="fill:#A1B5F4;" width="64.496" height="6.095"/>
						<path style="fill:#A1B5F4;" d="M1572.646,284.271v6.619h-6.619v-6.619H1572.646 M1574.731,282.186h-10.79v10.79h10.79V282.186
							L1574.731,282.186z"/>
						<rect x="1583.059" y="284.533" style="fill:#A1B5F4;" width="64.496" height="6.095"/>
						<path style="fill:#7B9AEA;" d="M1580.721,173.052c-4.763,3.45-9.142,7.694-12.393,12.595
							c-1.418-1.739-3.078-3.281-4.917-4.567c0.938-0.786,1.98-1.584,2.918-2.37c0.739,0.861,1.783,2.321,2.277,3.342
							C1574.542,176.305,1580.721,173.052,1580.721,173.052z"/>
						<path style="fill:#7B9AEA;" d="M1580.721,190.72c-4.763,3.45-9.142,7.694-12.393,12.595c-1.418-1.739-3.078-3.281-4.917-4.567
							c0.938-0.786,1.98-1.584,2.918-2.37c0.739,0.861,1.783,2.321,2.277,3.342C1574.542,193.973,1580.721,190.72,1580.721,190.72z"
							/>
						<path style="fill:#7B9AEA;" d="M1580.721,208.388c-4.763,3.45-9.142,7.695-12.393,12.595
							c-1.418-1.739-3.078-3.281-4.917-4.567c0.938-0.786,1.98-1.584,2.918-2.37c0.739,0.861,1.783,2.321,2.277,3.342
							C1574.542,211.641,1580.721,208.388,1580.721,208.388z"/>
						<path style="fill:#7B9AEA;" d="M1580.721,226.056c-4.763,3.45-9.142,7.694-12.393,12.595
							c-1.418-1.739-3.078-3.281-4.917-4.567c0.938-0.786,1.98-1.584,2.918-2.37c0.739,0.861,1.783,2.321,2.277,3.342
							C1574.542,229.309,1580.721,226.056,1580.721,226.056z"/>
						<path style="fill:#7B9AEA;" d="M1580.721,243.725c-4.763,3.45-9.142,7.694-12.393,12.595
							c-1.418-1.739-3.078-3.281-4.917-4.567c0.938-0.786,1.98-1.584,2.918-2.37c0.739,0.861,1.783,2.321,2.277,3.342
							C1574.542,246.978,1580.721,243.725,1580.721,243.725z"/>
						<path style="fill:#7B9AEA;" d="M1580.721,261.393c-4.763,3.45-9.142,7.694-12.393,12.595
							c-1.418-1.739-3.078-3.281-4.917-4.567c0.938-0.786,1.98-1.583,2.918-2.37c0.739,0.861,1.783,2.321,2.277,3.342
							C1574.542,264.646,1580.721,261.393,1580.721,261.393z"/>
						<path style="fill:#7B9AEA;" d="M1580.721,279.061c-4.763,3.45-9.142,7.694-12.393,12.595
							c-1.418-1.739-3.078-3.281-4.917-4.567c0.938-0.786,1.98-1.583,2.918-2.37c0.739,0.861,1.783,2.321,2.277,3.342
							C1574.542,282.314,1580.721,279.061,1580.721,279.061z"/>
						<polygon style="fill:#7B9AEA;" points="1573.684,178.589 1573.684,159.105 1554.199,178.589 						"/>
					</g>
					<g>
						<g>
							<rect x="1661.899" y="176.324" style="fill:#7B9AEA;" width="149.115" height="73.798"/>
							<path style="fill:#A1B5F4;" d="M1670.241,228.224v-30.002c7.487,0,13.556-6.069,13.556-13.556h105.319
								c0,7.487,6.069,13.556,13.556,13.556v30.002c-7.487,0-13.556,6.069-13.556,13.556h-105.319
								C1683.797,234.294,1677.728,228.224,1670.241,228.224z"/>
							
								<ellipse transform="matrix(0.2298 -0.9732 0.9732 0.2298 1128.7631 1855.2046)" style="fill:#7B9AEA;" cx="1736.457" cy="214.476" rx="21.869" ry="21.869"/>
							<g>
								<path style="fill:#7B9AEA;" d="M1692.582,228.061v-2.41c-2.797-0.441-5.37-1.706-7.726-3.797l3.071-3.73
									c1.717,1.498,3.27,2.454,4.656,2.872v-4.918c-2.31-0.595-4.006-1.392-5.086-2.394c-1.077-1.001-1.617-2.444-1.617-4.326
									c0-1.881,0.618-3.432,1.848-4.654c1.233-1.221,2.851-1.953,4.855-2.195v-1.617h3.498v1.683
									c2.2,0.309,4.393,1.221,6.571,2.74l-2.708,3.895c-1.386-0.99-2.673-1.651-3.863-1.981v4.754
									c2.378,0.617,4.132,1.443,5.266,2.476c1.134,1.036,1.701,2.498,1.701,4.391c0,1.893-0.634,3.455-1.899,4.688
									c-1.265,1.233-2.953,1.969-5.067,2.211v2.312H1692.582z M1692.582,207.097c-0.948,0.33-1.421,0.936-1.421,1.816
									c0,0.88,0.473,1.551,1.421,2.013V207.097z M1697.764,219.114c0-0.462-0.121-0.848-0.363-1.157
									c-0.242-0.307-0.682-0.594-1.322-0.857v4.059C1697.203,220.808,1697.764,220.126,1697.764,219.114z"/>
							</g>
							<g>
								<path style="fill:#7B9AEA;" d="M1777.594,228.061v-2.41c-2.797-0.441-5.37-1.706-7.727-3.797l3.071-3.73
									c1.717,1.498,3.27,2.454,4.656,2.872v-4.918c-2.31-0.595-4.006-1.392-5.086-2.394c-1.077-1.001-1.617-2.444-1.617-4.326
									c0-1.881,0.618-3.432,1.848-4.654c1.233-1.221,2.851-1.953,4.855-2.195v-1.617h3.498v1.683
									c2.2,0.309,4.392,1.221,6.571,2.74l-2.708,3.895c-1.386-0.99-2.673-1.651-3.863-1.981v4.754
									c2.377,0.617,4.132,1.443,5.266,2.476c1.134,1.036,1.7,2.498,1.7,4.391c0,1.893-0.634,3.455-1.899,4.688
									c-1.265,1.233-2.953,1.969-5.067,2.211v2.312H1777.594z M1777.594,207.097c-0.948,0.33-1.421,0.936-1.421,1.816
									c0,0.88,0.473,1.551,1.421,2.013V207.097z M1782.777,219.114c0-0.462-0.121-0.848-0.363-1.157
									c-0.242-0.307-0.682-0.594-1.322-0.857v4.059C1782.215,220.808,1782.777,220.126,1782.777,219.114z"/>
							</g>
						</g>
						<rect x="1683.211" y="198.331" style="opacity:0.3;fill:#192684;" width="127.794" height="73.798"/>
						<g>
							<rect x="1695.31" y="201.379" style="fill:#7B9AEA;" width="149.115" height="73.798"/>
							<path style="fill:#A1B5F4;" d="M1703.652,253.279v-30.002c7.487,0,13.556-6.069,13.556-13.556h105.32
								c0,7.487,6.069,13.556,13.556,13.556v30.002c-7.487,0-13.556,6.069-13.556,13.556h-105.32
								C1717.208,259.348,1711.139,253.279,1703.652,253.279z"/>
							<circle style="fill:#7B9AEA;" cx="1769.868" cy="239.53" r="21.869"/>
							<g>
								<path style="fill:#7B9AEA;" d="M1725.992,253.115v-2.41c-2.797-0.441-5.37-1.706-7.726-3.797l3.071-3.73
									c1.717,1.498,3.27,2.454,4.656,2.872v-4.918c-2.31-0.595-4.005-1.392-5.086-2.394c-1.077-1.001-1.617-2.443-1.617-4.325
									c0-1.881,0.618-3.432,1.848-4.654c1.233-1.221,2.85-1.953,4.855-2.195v-1.617h3.498v1.683c2.2,0.309,4.393,1.221,6.572,2.74
									l-2.708,3.896c-1.386-0.99-2.673-1.651-3.863-1.981v4.754c2.378,0.617,4.132,1.443,5.266,2.476
									c1.134,1.036,1.701,2.498,1.701,4.391c0,1.893-0.634,3.455-1.899,4.688c-1.265,1.233-2.952,1.969-5.067,2.211v2.312
									H1725.992z M1725.992,232.151c-0.948,0.33-1.421,0.936-1.421,1.816c0,0.88,0.473,1.551,1.421,2.014V232.151z
									 M1731.175,244.168c0-0.462-0.121-0.848-0.363-1.157c-0.242-0.308-0.683-0.594-1.322-0.857v4.059
									C1730.614,245.862,1731.175,245.18,1731.175,244.168z"/>
							</g>
							<g>
								<path style="fill:#7B9AEA;" d="M1811.005,253.115v-2.41c-2.797-0.441-5.37-1.706-7.726-3.797l3.071-3.73
									c1.717,1.498,3.27,2.454,4.656,2.872v-4.918c-2.31-0.595-4.006-1.392-5.086-2.394c-1.077-1.001-1.617-2.443-1.617-4.325
									c0-1.881,0.618-3.432,1.848-4.654c1.233-1.221,2.85-1.953,4.855-2.195v-1.617h3.498v1.683c2.2,0.309,4.393,1.221,6.571,2.74
									l-2.708,3.896c-1.386-0.99-2.673-1.651-3.863-1.981v4.754c2.378,0.617,4.132,1.443,5.266,2.476
									c1.134,1.036,1.701,2.498,1.701,4.391c0,1.893-0.634,3.455-1.899,4.688c-1.266,1.233-2.953,1.969-5.067,2.211v2.312
									H1811.005z M1811.005,232.151c-0.948,0.33-1.421,0.936-1.421,1.816c0,0.88,0.473,1.551,1.421,2.014V232.151z
									 M1816.187,244.168c0-0.462-0.121-0.848-0.363-1.157c-0.242-0.308-0.682-0.594-1.322-0.857v4.059
									C1815.626,245.862,1816.187,245.18,1816.187,244.168z"/>
							</g>
						</g>
					</g>
				</g>
				<g>
					<path style="fill:#1D355E;" d="M1803.145,309.667c0,0,39.035,54.425,17.987,108.851h-17.987h-17.987
						C1764.109,364.092,1803.145,309.667,1803.145,309.667z"/>
					<path style="fill:#0C151F;" d="M1832.345,336.62c0,0,29.37,40.949,13.533,81.898h-13.533h-13.533
						C1802.976,377.569,1832.345,336.62,1832.345,336.62z"/>
				</g>
				<g>
					<path style="fill:#1D355E;" d="M1600.781,309.667c0,0-39.035,54.425-17.987,108.851h17.987h17.987
						C1639.816,364.092,1600.781,309.667,1600.781,309.667z"/>
					<path style="fill:#0C151F;" d="M1571.58,336.62c0,0-29.37,40.949-13.533,81.898h13.533h13.533
						C1600.949,377.569,1571.58,336.62,1571.58,336.62z"/>
					<g>
						<path style="fill:#1D355E;" d="M1567.57,407.037c0-6.745,2.369-12.935,6.317-17.79c-3.233-1.594-6.858-2.514-10.706-2.514
							c-13.401,0-24.266,10.864-24.266,24.265c0,2.627,0.43,5.15,1.202,7.519h29.894
							C1568.447,415.009,1567.57,411.127,1567.57,407.037z"/>
						<path style="fill:#0C151F;" d="M1595.797,378.811c-8.844,0-16.735,4.07-21.91,10.436c-3.947,4.855-6.317,11.045-6.317,17.79
							c0,4.089,0.877,7.972,2.441,11.48h16.233h35.338c1.564-3.508,2.441-7.391,2.441-11.48
							C1624.024,391.448,1611.386,378.811,1595.797,378.811z"/>
					</g>
				</g>
				<g>
					<g>
						<polygon style="fill:#A1B5F4;" points="1662.288,252.416 1662.288,418.513 1736.336,418.513 1736.336,326.464 						"/>
						<polygon style="fill:#7B9AEA;" points="1736.336,308.438 1662.288,234.389 1662.288,252.416 1736.336,326.464 						"/>
					</g>
					<rect x="1736.336" y="307.955" style="fill:#7B9AEA;" width="72.056" height="110.558"/>
					<g>
						<polygon style="fill:#2D4D7D;" points="1824.503,318.217 1740.676,234.389 1662.288,234.389 1746.116,318.217 						"/>
						<polygon style="fill:#1D355E;" points="1662.288,234.389 1746.116,318.217 1742.689,323.024 1662.288,242.623 						"/>
						<polygon style="fill:#0C151F;" points="1746.116,318.217 1742.689,323.024 1821.077,323.024 1824.503,318.217 						"/>
					</g>
					<polygon style="fill:#1D355E;" points="1662.288,276.303 1579.784,358.68 1583.647,363.234 1662.288,284.719 					"/>
					<polygon style="fill:#D8E2EF;" points="1592.766,354.129 1592.766,418.513 1662.288,418.513 1662.288,284.719 					"/>
					<polygon style="fill:#0C151F;" points="1583.647,363.234 1592.766,354.129 1592.766,363.234 					"/>
					<rect x="1662.288" y="342.018" style="fill:#D8E2EF;" width="74.048" height="5.984"/>
					<rect x="1736.336" y="342.018" style="fill:#A1B5F4;" width="72.056" height="5.984"/>
					<g>
						<polygon style="fill:#2D4D7D;" points="1678.152,362.099 1678.152,392.012 1692.044,392.012 1692.044,393.222 
							1672.832,393.222 1672.832,362.099 						"/>
						<rect x="1678.152" y="362.099" style="fill:#E6ECEE;" width="13.892" height="29.914"/>
					</g>
					<g>
						<polygon style="fill:#2D4D7D;" points="1699.628,401.251 1699.628,405.566 1696.003,405.566 1696.003,409.882 
							1692.033,409.882 1692.033,414.197 1688.063,414.197 1688.063,418.513 1726.835,418.513 1726.835,401.251 						"/>
						<polygon style="fill:#0C151F;" points="1724.484,401.251 1724.484,405.566 1720.86,405.566 1720.86,409.882 1716.889,409.882 
							1716.889,414.197 1712.919,414.197 1712.919,418.513 1728.8,418.513 1728.8,414.197 1728.8,409.882 1728.8,405.566 
							1728.8,401.251 						"/>
					</g>
					<g>
						<rect x="1705.497" y="363.103" style="fill:#2D4D7D;" width="23.303" height="38.148"/>
						<rect x="1705.497" y="363.103" style="fill:#0C151F;" width="23.303" height="5.754"/>
						<path style="fill:#0C151F;" d="M1709.179,384.622c0,0.667-0.541,1.208-1.208,1.208c-0.667,0-1.208-0.541-1.208-1.208
							c0-0.667,0.541-1.208,1.208-1.208C1708.638,383.414,1709.179,383.955,1709.179,384.622z"/>
					</g>
					<g>
						<rect x="1601.419" y="368.885" style="fill:#7B9AEA;" width="52.834" height="49.627"/>
						<rect x="1601.419" y="356.15" style="fill:#2D4D7D;" width="52.834" height="12.736"/>
						<g>
							<rect x="1601.419" y="374.509" style="fill:#A1B5F4;" width="52.834" height="0.78"/>
							<rect x="1601.419" y="383.481" style="fill:#A1B5F4;" width="52.834" height="0.78"/>
							<rect x="1601.419" y="392.454" style="fill:#A1B5F4;" width="52.834" height="0.78"/>
							<rect x="1601.419" y="401.427" style="fill:#A1B5F4;" width="52.834" height="0.78"/>
							<rect x="1601.419" y="410.4" style="fill:#A1B5F4;" width="52.834" height="0.78"/>
						</g>
						<rect x="1601.419" y="414.084" style="fill:#A1B5F4;" width="52.834" height="4.428"/>
						<rect x="1624.444" y="415.088" style="fill:#2D4D7D;" width="6.186" height="1.211"/>
					</g>
					<polygon style="fill:#A1B5F4;" points="1662.288,284.719 1592.766,354.129 1592.766,363.234 1662.288,293.712 					"/>
					<g>
						<polygon style="fill:#2D4D7D;" points="1678.225,329.071 1678.225,283.976 1673.336,279.087 1673.336,331.04 1725.289,331.04 
							1723.321,329.071 						"/>
						<polygon style="fill:#E6ECEE;" points="1723.321,329.071 1678.225,283.976 1678.225,329.071 						"/>
					</g>
					<g>
						<polygon style="fill:#0C151F;" points="1769.002,363.103 1769.002,388.487 1760.889,388.487 1760.889,389.513 
							1772.109,389.513 1772.109,363.103 						"/>
						<rect x="1760.889" y="363.103" style="fill:#D8E2EF;" width="8.113" height="25.384"/>
					</g>
					<g>
						<polygon style="fill:#0C151F;" points="1789.127,363.103 1789.127,388.487 1781.014,388.487 1781.014,389.513 
							1792.234,389.513 1792.234,363.103 						"/>
						<rect x="1781.014" y="363.103" style="fill:#D8E2EF;" width="8.113" height="25.384"/>
					</g>
				</g>
				<g>
					<path style="fill:#1D355E;" d="M1821.74,409.061c0-5.556-1.952-10.655-5.203-14.655c2.663-1.313,5.649-2.071,8.819-2.071
						c11.039,0,19.989,8.949,19.989,19.989c0,2.164-0.354,4.242-0.99,6.194h-24.625
						C1821.018,415.627,1821.74,412.43,1821.74,409.061z"/>
					<path style="fill:#0C151F;" d="M1798.488,385.809c7.285,0,13.785,3.353,18.048,8.597c3.252,4,5.203,9.099,5.203,14.655
						c0,3.369-0.722,6.567-2.011,9.457h-13.372h-29.109c-1.289-2.89-2.011-6.088-2.011-9.457
						C1775.237,396.219,1785.647,385.809,1798.488,385.809z"/>
				</g>
			</g>
			<rect x="1363.77" y="74.378" style="fill:#7C9AE7;" width="165.636" height="254.693"/>
			<rect x="1265.636" y="273.163" style="fill:#0C151F;" width="263.77" height="165.367"/>
			<rect x="1363.77" y="273.163" style="fill:#2D4D7D;" width="165.636" height="55.908"/>
			<rect x="1326.56" y="41.469" style="fill:#2D4D7D;" width="70.961" height="100.855"/>
			
				<ellipse transform="matrix(0.2066 -0.9784 0.9784 0.2066 673.7961 1595.2402)" style="fill:#7C9AE7;" cx="1320.477" cy="382.177" rx="27.959" ry="27.959"/>
			<polygon style="fill:#0C151F;" points="1863.221,85.913 1783.801,85.913 1823.511,46.203 			"/>
			<polygon style="fill:#2D4D7D;" points="1783.392,85.913 1703.971,85.913 1743.681,46.203 			"/>
			<polygon style="fill:#7C9AE7;" points="1863.221,125.623 1783.801,125.623 1823.511,85.913 			"/>
			<polygon style="fill:#0C151F;" points="1783.392,125.623 1703.971,125.623 1743.681,85.913 			"/>
			<circle style="fill:#7C9AE7;" cx="1650.582" cy="85.913" r="39.71"/>
			<circle style="fill:#7C9AE7;" cx="1570.139" cy="85.913" r="24.819"/>
			<g>
				<circle style="fill:#2D4D7D;" cx="1270.267" cy="50.526" r="4.631"/>
				<path style="fill:#2D4D7D;" d="M1298.177,50.526c0,2.558-2.073,4.631-4.631,4.631c-2.557,0-4.631-2.073-4.631-4.631
					c0-2.558,2.073-4.631,4.631-4.631C1296.103,45.896,1298.177,47.969,1298.177,50.526z"/>
				<path style="fill:#2D4D7D;" d="M1274.898,69.784c0,2.558-2.073,4.631-4.631,4.631c-2.558,0-4.631-2.073-4.631-4.631
					c0-2.558,2.073-4.631,4.631-4.631C1272.824,65.153,1274.898,67.227,1274.898,69.784z"/>
				<path style="fill:#2D4D7D;" d="M1298.177,69.784c0,2.558-2.073,4.631-4.631,4.631c-2.557,0-4.631-2.073-4.631-4.631
					c0-2.558,2.073-4.631,4.631-4.631C1296.103,65.153,1298.177,67.227,1298.177,69.784z"/>
				<circle style="fill:#2D4D7D;" cx="1270.267" cy="89.042" r="4.631"/>
				<path style="fill:#2D4D7D;" d="M1298.177,89.042c0,2.558-2.073,4.631-4.631,4.631c-2.557,0-4.631-2.073-4.631-4.631
					c0-2.558,2.073-4.631,4.631-4.631C1296.103,84.411,1298.177,86.484,1298.177,89.042z"/>
				<circle style="fill:#2D4D7D;" cx="1270.267" cy="108.3" r="4.631"/>
				<path style="fill:#2D4D7D;" d="M1298.177,108.3c0,2.558-2.073,4.631-4.631,4.631c-2.557,0-4.631-2.073-4.631-4.631
					c0-2.557,2.073-4.631,4.631-4.631C1296.103,103.669,1298.177,105.742,1298.177,108.3z"/>
				<path style="fill:#2D4D7D;" d="M1274.898,127.557c0,2.557-2.073,4.631-4.631,4.631c-2.558,0-4.631-2.073-4.631-4.631
					c0-2.558,2.073-4.631,4.631-4.631C1272.824,122.926,1274.898,125,1274.898,127.557z"/>
				<path style="fill:#2D4D7D;" d="M1298.177,127.557c0,2.557-2.073,4.631-4.631,4.631c-2.557,0-4.631-2.073-4.631-4.631
					c0-2.558,2.073-4.631,4.631-4.631C1296.103,122.926,1298.177,125,1298.177,127.557z"/>
				<circle style="fill:#2D4D7D;" cx="1270.267" cy="146.815" r="4.631"/>
				<path style="fill:#2D4D7D;" d="M1298.177,146.815c0,2.558-2.073,4.631-4.631,4.631c-2.557,0-4.631-2.073-4.631-4.631
					c0-2.558,2.073-4.631,4.631-4.631C1296.103,142.184,1298.177,144.258,1298.177,146.815z"/>
				<path style="fill:#2D4D7D;" d="M1274.898,166.073c0,2.558-2.073,4.631-4.631,4.631c-2.558,0-4.631-2.073-4.631-4.631
					c0-2.557,2.073-4.631,4.631-4.631C1272.824,161.442,1274.898,163.515,1274.898,166.073z"/>
				<path style="fill:#2D4D7D;" d="M1298.177,166.073c0,2.558-2.073,4.631-4.631,4.631c-2.557,0-4.631-2.073-4.631-4.631
					c0-2.557,2.073-4.631,4.631-4.631C1296.103,161.442,1298.177,163.515,1298.177,166.073z"/>
				<circle style="fill:#2D4D7D;" cx="1270.267" cy="185.331" r="4.631"/>
				<path style="fill:#2D4D7D;" d="M1298.177,185.331c0,2.558-2.073,4.631-4.631,4.631c-2.557,0-4.631-2.073-4.631-4.631
					s2.073-4.631,4.631-4.631C1296.103,180.7,1298.177,182.773,1298.177,185.331z"/>
				<path style="fill:#2D4D7D;" d="M1274.898,204.588c0,2.558-2.073,4.631-4.631,4.631c-2.558,0-4.631-2.073-4.631-4.631
					c0-2.557,2.073-4.631,4.631-4.631C1272.824,199.958,1274.898,202.031,1274.898,204.588z"/>
				<path style="fill:#2D4D7D;" d="M1298.177,204.588c0,2.558-2.073,4.631-4.631,4.631c-2.557,0-4.631-2.073-4.631-4.631
					c0-2.557,2.073-4.631,4.631-4.631C1296.103,199.958,1298.177,202.031,1298.177,204.588z"/>
				<path style="fill:#2D4D7D;" d="M1274.898,223.846c0,2.557-2.073,4.631-4.631,4.631c-2.558,0-4.631-2.073-4.631-4.631
					c0-2.558,2.073-4.631,4.631-4.631C1272.824,219.215,1274.898,221.288,1274.898,223.846z"/>
				<path style="fill:#2D4D7D;" d="M1298.177,223.846c0,2.557-2.073,4.631-4.631,4.631c-2.557,0-4.631-2.073-4.631-4.631
					c0-2.558,2.073-4.631,4.631-4.631C1296.103,219.215,1298.177,221.288,1298.177,223.846z"/>
				<circle style="fill:#2D4D7D;" cx="1270.267" cy="243.104" r="4.631"/>
				<path style="fill:#2D4D7D;" d="M1298.177,243.104c0,2.558-2.073,4.631-4.631,4.631c-2.557,0-4.631-2.073-4.631-4.631
					c0-2.558,2.073-4.631,4.631-4.631C1296.103,238.473,1298.177,240.546,1298.177,243.104z"/>
			</g>
		</g>
		<g>
			<path style="fill:#2D4D7D;" d="M814.769,335.164c-3.025,0-5.477,2.452-5.477,5.477c0,3.025,2.452,5.477,5.477,5.477
				c3.025,0,5.477-2.452,5.477-5.477C820.246,337.616,817.794,335.164,814.769,335.164z"/>
			<circle style="fill:#2D4D7D;" cx="814.769" cy="363.417" r="5.477"/>
			<circle style="fill:#2D4D7D;" cx="814.769" cy="386.193" r="5.477"/>
			<circle style="fill:#2D4D7D;" cx="814.769" cy="408.97" r="5.477"/>
			<circle style="fill:#2D4D7D;" cx="814.769" cy="431.746" r="5.477"/>
			<path style="fill:#2D4D7D;" d="M838.157,335.164c-3.025,0-5.477,2.452-5.477,5.477c0,3.025,2.452,5.477,5.477,5.477
				c3.025,0,5.477-2.452,5.477-5.477C843.634,337.616,841.182,335.164,838.157,335.164z"/>
			<path style="fill:#2D4D7D;" d="M838.157,357.94c-3.025,0-5.477,2.452-5.477,5.477s2.452,5.477,5.477,5.477
				c3.025,0,5.477-2.452,5.477-5.477S841.182,357.94,838.157,357.94z"/>
			<path style="fill:#2D4D7D;" d="M838.157,380.716c-3.025,0-5.477,2.452-5.477,5.477c0,3.025,2.452,5.477,5.477,5.477
				c3.025,0,5.477-2.452,5.477-5.477C843.634,383.169,841.182,380.716,838.157,380.716z"/>
			<path style="fill:#2D4D7D;" d="M838.157,403.493c-3.025,0-5.477,2.452-5.477,5.477c0,3.025,2.452,5.477,5.477,5.477
				c3.025,0,5.477-2.452,5.477-5.477C843.634,405.945,841.182,403.493,838.157,403.493z"/>
			<path style="fill:#2D4D7D;" d="M838.157,426.269c-3.025,0-5.477,2.452-5.477,5.477c0,3.025,2.452,5.477,5.477,5.477
				c3.025,0,5.477-2.452,5.477-5.477C843.634,428.721,841.182,426.269,838.157,426.269z"/>
			<path style="fill:#2D4D7D;" d="M861.544,335.164c-3.025,0-5.477,2.452-5.477,5.477c0,3.025,2.452,5.477,5.477,5.477
				c3.025,0,5.477-2.452,5.477-5.477C867.021,337.616,864.569,335.164,861.544,335.164z"/>
			<circle style="fill:#2D4D7D;" cx="861.544" cy="363.417" r="5.477"/>
			<circle style="fill:#2D4D7D;" cx="861.544" cy="386.193" r="5.477"/>
			<circle style="fill:#2D4D7D;" cx="861.544" cy="408.97" r="5.477"/>
			<circle style="fill:#2D4D7D;" cx="861.544" cy="431.746" r="5.477"/>
			<path style="fill:#2D4D7D;" d="M884.932,335.164c-3.025,0-5.477,2.452-5.477,5.477c0,3.025,2.452,5.477,5.477,5.477
				c3.025,0,5.477-2.452,5.477-5.477C890.409,337.616,887.957,335.164,884.932,335.164z"/>
			<path style="fill:#2D4D7D;" d="M884.932,357.94c-3.025,0-5.477,2.452-5.477,5.477s2.452,5.477,5.477,5.477
				c3.025,0,5.477-2.452,5.477-5.477S887.957,357.94,884.932,357.94z"/>
			<path style="fill:#2D4D7D;" d="M884.932,380.716c-3.025,0-5.477,2.452-5.477,5.477c0,3.025,2.452,5.477,5.477,5.477
				c3.025,0,5.477-2.452,5.477-5.477C890.409,383.169,887.957,380.716,884.932,380.716z"/>
			<path style="fill:#2D4D7D;" d="M884.932,403.493c-3.025,0-5.477,2.452-5.477,5.477c0,3.025,2.452,5.477,5.477,5.477
				c3.025,0,5.477-2.452,5.477-5.477C890.409,405.945,887.957,403.493,884.932,403.493z"/>
			<path style="fill:#2D4D7D;" d="M884.932,426.269c-3.025,0-5.477,2.452-5.477,5.477c0,3.025,2.452,5.477,5.477,5.477
				c3.025,0,5.477-2.452,5.477-5.477C890.409,428.721,887.957,426.269,884.932,426.269z"/>
			<path style="fill:#2D4D7D;" d="M908.319,335.164c-3.025,0-5.477,2.452-5.477,5.477c0,3.025,2.452,5.477,5.477,5.477
				s5.477-2.452,5.477-5.477C913.796,337.616,911.344,335.164,908.319,335.164z"/>
			<circle style="fill:#2D4D7D;" cx="908.319" cy="363.417" r="5.477"/>
			<circle style="fill:#2D4D7D;" cx="908.319" cy="386.193" r="5.477"/>
			<circle style="fill:#2D4D7D;" cx="908.319" cy="408.97" r="5.477"/>
			<circle style="fill:#2D4D7D;" cx="908.319" cy="431.746" r="5.477"/>
			<path style="fill:#2D4D7D;" d="M931.707,335.164c-3.025,0-5.477,2.452-5.477,5.477c0,3.025,2.452,5.477,5.477,5.477
				c3.025,0,5.477-2.452,5.477-5.477C937.184,337.616,934.732,335.164,931.707,335.164z"/>
			<path style="fill:#2D4D7D;" d="M931.707,357.94c-3.025,0-5.477,2.452-5.477,5.477s2.452,5.477,5.477,5.477
				c3.025,0,5.477-2.452,5.477-5.477S934.732,357.94,931.707,357.94z"/>
			<path style="fill:#2D4D7D;" d="M931.707,380.716c-3.025,0-5.477,2.452-5.477,5.477c0,3.025,2.452,5.477,5.477,5.477
				c3.025,0,5.477-2.452,5.477-5.477C937.184,383.169,934.732,380.716,931.707,380.716z"/>
			<path style="fill:#2D4D7D;" d="M931.707,403.493c-3.025,0-5.477,2.452-5.477,5.477c0,3.025,2.452,5.477,5.477,5.477
				c3.025,0,5.477-2.452,5.477-5.477C937.184,405.945,934.732,403.493,931.707,403.493z"/>
			<path style="fill:#2D4D7D;" d="M931.707,426.269c-3.025,0-5.477,2.452-5.477,5.477c0,3.025,2.452,5.477,5.477,5.477
				c3.025,0,5.477-2.452,5.477-5.477C937.184,428.721,934.732,426.269,931.707,426.269z"/>
			<path style="fill:#2D4D7D;" d="M955.094,335.164c-3.025,0-5.477,2.452-5.477,5.477c0,3.025,2.452,5.477,5.477,5.477
				c3.025,0,5.477-2.452,5.477-5.477C960.571,337.616,958.119,335.164,955.094,335.164z"/>
			<circle style="fill:#2D4D7D;" cx="955.094" cy="363.417" r="5.477"/>
			<circle style="fill:#2D4D7D;" cx="955.094" cy="386.193" r="5.477"/>
			<circle style="fill:#2D4D7D;" cx="955.094" cy="408.97" r="5.477"/>
			<circle style="fill:#2D4D7D;" cx="955.094" cy="431.746" r="5.477"/>
			<path style="fill:#2D4D7D;" d="M978.482,346.118c3.025,0,5.477-2.452,5.477-5.477c0-3.025-2.452-5.477-5.477-5.477
				c-3.025,0-5.477,2.452-5.477,5.477C973.005,343.666,975.457,346.118,978.482,346.118z"/>
			<path style="fill:#2D4D7D;" d="M978.482,357.94c-3.025,0-5.477,2.452-5.477,5.477s2.452,5.477,5.477,5.477
				c3.025,0,5.477-2.452,5.477-5.477S981.506,357.94,978.482,357.94z"/>
			<path style="fill:#2D4D7D;" d="M978.482,380.716c-3.025,0-5.477,2.452-5.477,5.477c0,3.025,2.452,5.477,5.477,5.477
				c3.025,0,5.477-2.452,5.477-5.477C983.958,383.169,981.506,380.716,978.482,380.716z"/>
			<path style="fill:#2D4D7D;" d="M978.482,403.493c-3.025,0-5.477,2.452-5.477,5.477c0,3.025,2.452,5.477,5.477,5.477
				c3.025,0,5.477-2.452,5.477-5.477C983.958,405.945,981.506,403.493,978.482,403.493z"/>
			<path style="fill:#2D4D7D;" d="M978.482,426.269c-3.025,0-5.477,2.452-5.477,5.477c0,3.025,2.452,5.477,5.477,5.477
				c3.025,0,5.477-2.452,5.477-5.477C983.958,428.721,981.506,426.269,978.482,426.269z"/>
		</g>
	</g>
</g>
<g id="TEXTS">
	<g>
		<g>
			<g>
				<g>
					<path style="fill:#2D4D7D;" d="M517.257,319.396L517.257,319.396c-21.479,0-38.89,17.412-38.89,38.891l0,0
						c0,21.479,17.411,38.891,38.89,38.891l0,0c21.478,0,38.89-17.412,38.89-38.891l0,0
						C556.148,336.808,538.736,319.396,517.257,319.396z M547.082,373.367c-0.716,2.696-2.826,4.819-5.504,5.539
						c-4.855,1.309-24.321,1.309-24.321,1.309s-19.466,0-24.321-1.309c-2.678-0.72-4.787-2.843-5.504-5.539
						c-1.3-4.886-1.3-15.08-1.3-15.08s0-10.194,1.3-15.081c0.716-2.696,2.825-4.819,5.504-5.539
						c4.855-1.308,24.321-1.308,24.321-1.308s19.466,0,24.321,1.308c2.678,0.721,4.788,2.844,5.504,5.539
						c1.301,4.886,1.301,15.081,1.301,15.081S548.383,368.481,547.082,373.367z"/>
					<polygon style="fill:#2D4D7D;" points="510.891,367.542 527.161,358.287 510.891,349.031 					"/>
				</g>
				<path style="fill:#2D4D7D;" d="M407.097,319.396c-21.478,0-38.89,17.411-38.89,38.89v0.001c0,21.478,17.412,38.89,38.89,38.89
					c21.479,0,38.891-17.412,38.891-38.89v-0.001C445.988,336.807,428.576,319.396,407.097,319.396z M423.576,349.833
					c0.537,11.959-8.381,25.292-24.166,25.292c-4.801,0-9.27-1.407-13.033-3.82c4.51,0.533,9.014-0.718,12.587-3.521
					c-3.721-0.069-6.862-2.526-7.941-5.904c1.33,0.254,2.641,0.181,3.838-0.145c-4.089-0.822-6.912-4.505-6.819-8.445
					c1.145,0.637,2.458,1.02,3.852,1.064c-3.787-2.53-4.859-7.529-2.632-11.352c4.192,5.145,10.457,8.53,17.523,8.885
					c-1.239-5.318,2.794-10.44,8.282-10.44c2.447,0,4.655,1.031,6.207,2.684c1.935-0.381,3.755-1.09,5.397-2.064
					c-0.634,1.988-1.983,3.653-3.737,4.704c1.719-0.205,3.358-0.662,4.883-1.338C426.678,347.139,425.236,348.636,423.576,349.833z"
					/>
				<path style="fill:#2D4D7D;" d="M189.571,319.396L189.571,319.396c-21.479,0-38.891,17.411-38.891,38.89v0.001
					c0,21.478,17.411,38.89,38.89,38.89h0.001c21.478,0,38.89-17.412,38.89-38.89v-0.001
					C228.461,336.807,211.049,319.396,189.571,319.396z M200.421,343.017c0,0-3.667,0-5.123,0c-1.81,0-2.186,0.739-2.186,2.611
					c0,1.557,0,4.521,0,4.521h7.309l-0.704,7.938h-6.605v23.707h-9.467v-23.608h-4.924v-8.037h4.924c0,0,0-1.155,0-6.328
					c0-5.938,3.176-9.041,10.221-9.041c1.154,0,6.555,0,6.555,0V343.017z"/>
				<g>
					<path style="fill:#2D4D7D;" d="M296.938,351.178c-3.926,0-7.108,3.182-7.108,7.108c0,3.925,3.182,7.108,7.108,7.108
						c3.925,0,7.108-3.183,7.108-7.108C304.045,354.361,300.863,351.178,296.938,351.178z"/>
					<path style="fill:#2D4D7D;" d="M296.938,319.396c-21.478,0-38.891,17.411-38.891,38.89v0.001
						c0,21.478,17.412,38.89,38.891,38.89c21.478,0,38.89-17.412,38.89-38.89v-0.001
						C335.827,336.807,318.416,319.396,296.938,319.396z M318.133,367.078c-0.104,2.27-0.465,3.82-0.991,5.176
						c-0.545,1.402-1.274,2.592-2.46,3.777c-1.185,1.185-2.375,1.915-3.778,2.46c-1.356,0.527-2.906,0.888-5.175,0.991
						c-2.275,0.104-3.001,0.128-8.792,0.128c-5.792,0-6.518-0.025-8.792-0.128c-2.269-0.104-3.819-0.465-5.176-0.991
						c-1.402-0.545-2.591-1.274-3.777-2.46c-1.186-1.186-1.915-2.375-2.459-3.777c-0.527-1.357-0.888-2.906-0.991-5.176
						c-0.104-2.274-0.128-3.001-0.128-8.791c0-5.792,0.025-6.518,0.128-8.792c0.104-2.269,0.464-3.819,0.991-5.176
						c0.544-1.402,1.274-2.592,2.459-3.777c1.185-1.185,2.375-1.915,3.777-2.459c1.357-0.527,2.907-0.888,5.176-0.991
						c2.274-0.103,3-0.129,8.792-0.129c5.791,0,6.517,0.025,8.792,0.129c2.269,0.104,3.82,0.465,5.175,0.991
						c1.403,0.545,2.593,1.274,3.778,2.459c1.185,1.186,1.914,2.375,2.46,3.777c0.526,1.356,0.887,2.906,0.991,5.176
						c0.103,2.274,0.128,3,0.128,8.792C318.26,364.077,318.236,364.804,318.133,367.078z"/>
					<path style="fill:#2D4D7D;" d="M313.56,345.71c-0.387-0.995-0.849-1.705-1.596-2.452c-0.746-0.746-1.456-1.208-2.451-1.595
						c-0.752-0.292-1.882-0.64-3.96-0.734c-2.249-0.103-2.923-0.125-8.616-0.125c-5.694,0-6.368,0.022-8.617,0.125
						c-2.078,0.095-3.208,0.442-3.959,0.734c-0.996,0.387-1.706,0.848-2.452,1.595c-0.746,0.746-1.209,1.456-1.596,2.452
						c-0.292,0.752-0.639,1.881-0.734,3.96c-0.102,2.248-0.124,2.922-0.124,8.616c0,5.694,0.022,6.368,0.124,8.616
						c0.096,2.079,0.443,3.208,0.734,3.959c0.387,0.996,0.85,1.706,1.596,2.452c0.746,0.746,1.456,1.208,2.452,1.595
						c0.751,0.293,1.88,0.64,3.959,0.734c2.249,0.102,2.923,0.124,8.617,0.124c5.694,0,6.368-0.022,8.616-0.124
						c2.078-0.095,3.208-0.442,3.96-0.734c0.995-0.387,1.705-0.849,2.451-1.595c0.747-0.747,1.208-1.457,1.596-2.452
						c0.292-0.751,0.639-1.88,0.734-3.959c0.102-2.249,0.124-2.923,0.124-8.616c0-5.694-0.022-6.368-0.124-8.616
						C314.2,347.591,313.853,346.462,313.56,345.71z M296.938,369.236c-6.047,0-10.95-4.902-10.95-10.95s4.903-10.95,10.95-10.95
						c6.047,0,10.95,4.902,10.95,10.95S302.985,369.236,296.938,369.236z M308.32,349.463c-1.413,0-2.559-1.146-2.559-2.559
						c0-1.413,1.146-2.559,2.559-2.559c1.414,0,2.559,1.146,2.559,2.559C310.879,348.317,309.734,349.463,308.32,349.463z"/>
				</g>
			</g>
			<rect x="150.68" y="412.215" style="fill:none;" width="405.467" height="15.535"/>
			
				<text transform="matrix(1 0 0 1 150.6804 426.7139)" style="fill:#2D4D7D; font-family:'Montserrat-Black'; font-size:19.5406px;">Lorem ipsum dolor sit amet</text>
		</g>
		
			<text transform="matrix(1 0 0 1 149.219 151.5674)" style="fill:#2D4D7D; font-family:'Montserrat-Black'; font-size:116.8458px;">EXCLUSIVE</text>
		
			<text transform="matrix(1 0 0 1 149.219 258.4834)" style="fill:#7C9AE7; font-family:'Montserrat-Black'; font-size:116.8458px;">PROPERTIES</text>
		<rect x="150.68" y="288.19" style="fill:#A0B6F2;" width="838.69" height="6.62"/>
	</g>
</g>
</svg>
